# xmcd
#
# Track frame offsets:
#	150
#	33756
#	47950
#	63856
#	80796
#	96183
#	120266
#	137776
#	151582
#	183815
#	230511
#	247568
#
# Disc length: 3472 seconds
#
# Revision: 1
# Processed by: cddbd v1.5.2PL0 Copyright (c) Steve Scherf et al.
# Submitted via: audiograbber 1.83.01
#
DISCID=870d8e0c
DTITLE=Various Artist - White Boys Can Play The Blues
DYEAR=1900
DGENRE=Blues
TTITLE0=Billy Sheehan - Oh Well
TTITLE1=Ken Hensley - Hellhound On My Trail
TTITLE2=Jack Bruce - Send For Me
TTITLE3=The Pretty Things - Judement Day
TTITLE4=Reverend Rusty and The Case - Work For Your Dreams
TTITLE5=Harvey Mandel - Ramplin Pony
TTITLE6=Savoy Brown - Sweet Loving Think
TTITLE7=Toni McPhee - Drop Down Mama
TTITLE8=Snowy White - Looking For Somebody
TTITLE9=Big Jim Sullivan - Maggie Bell - Blind man
TTITLE10=Cyril Davis - KC Moan
TTITLE11=Mitch Woods - Rocket 88
EXTD=
EXTT0=
EXTT1=
EXTT2=
EXTT3=
EXTT4=
EXTT5=
EXTT6=
EXTT7=
EXTT8=
EXTT9=
EXTT10=
EXTT11=
PLAYORDER=
